<mxfile host="drawio-plugin" modified="2023-02-12T12:45:11.081Z" agent="5.0 (Windows NT 6.2; Win64; x64) AppleWebKit/537.36 (KHTML, like Gecko) Chrome/97.0.4692.45 Safari/537.36" etag="S9d0CP4C7KbKNfcfo5Q5" version="20.5.3" type="embed"><diagram id="23iRSUPoRavnBvh4doch" name="Page-1"><mxGraphModel dx="1270" dy="855" grid="1" gridSize="10" guides="1" tooltips="1" connect="1" arrows="1" fold="1" page="1" pageScale="1" pageWidth="827" pageHeight="1169" math="0" shadow="0"><root><mxCell id="0"/><mxCell id="1" parent="0"/><mxCell id="2" value="&lt;b&gt;&lt;font style=&quot;font-size: 18px;&quot;&gt;Облачный сервер&lt;/font&gt;&lt;/b&gt;" style="strokeWidth=1;shadow=0;dashed=0;align=center;html=1;shape=mxgraph.mockup.containers.window;align=left;verticalAlign=top;spacingLeft=8;strokeColor2=#008cff;strokeColor3=#c4c4c4;fontColor=#666666;mainText=;fontSize=17;labelBackgroundColor=none;aspect=fixed;" parent="1" vertex="1"><mxGeometry y="130" width="1260" height="740" as="geometry"/></mxCell><mxCell id="10" value="" style="rounded=0;whiteSpace=wrap;html=1;labelBackgroundColor=none;labelBorderColor=none;fontSize=18;fontColor=none;" parent="1" vertex="1"><mxGeometry x="9" y="168" width="963" height="693" as="geometry"/></mxCell><mxCell id="4" value="" style="shape=image;verticalLabelPosition=bottom;labelBackgroundColor=default;verticalAlign=top;aspect=fixed;imageAspect=0;image=data:image/png,iVBORw0KGgoAAAANSUhEUgAAA8EAAAHyCAYAAADLOcwqAAAgAElEQVR4nO3deZRk6Vkf6De23DNr37qrq9WLein1otbSEhKotbWlBo0sBAwYfCyPsZEMIxgDPmB8NMIH25hBgMEMBgYMGttIgxghMwLJoJboBi3W1oukbkm919K1ZC1ZlXtGRsT8UZWlrKyMfY/7POd0V+WNe7/7RWTEW/cX373fTRUKxVIAAABAAqS73QEAAADolGy3OwDQiHQ61e0uDLSik4QAgAFlJBgAAIDEEIIBAABIDCEYAACAxBCCAQAASAwhGAAAgMQQggEAAEgMIRgAAIDEEIIBAABIDCEYAACAxBCCAQAASAwhGAAAgMQQggEAAEgMIRgAAIDEEIIBAABIDCEYAACAxBCCAQAASAwhGAAAgMQQggEAAEiMbKd3eM/rXr/p8gc+9ckO94SkWf/e834DAIBk6lgILhd+Nz4unAAAANAuHTkderMA/MCnPrlp4K0WlgEAAKBRbR8J3hhqNwbftZ+FXwAAANqtoxNjVTrVef1jAjEAAADt0PGJsZpVy8Rala4vrnVypHom8KoW2itt00gfG5lcrJE+Vmur3udVqR/tfo0aXaeZftTymtfzem08a2L99pu1Xa29WtbfuL9a+tfsdpX6WUt/AQCgkraOBLdyNt57Xvf6jowQV9tPI31oZb8b6VunRtar9a3Vr2s9bW1cVss6ndTMFym1ttep179ZvdQXAAAGT9+NBEfUP+LWiv2s38c9r3v9pqGkUlApt02z/aq2n2ZGKutRzxce9b6uzah0zXmz16PXul2jz6mW9hsZfS63n3a8/pupNYx36nMOAECydPSa4EZVC1itOnCvtJ9m99HOANzr2vm61rqvSvtt5Hr0VgWydoX+iNpP9+4kQRYAgG7ry5HgWnX7gLuW/Tfbx147hbcdQavbv8eN2tWf9SOxtYyst+ISg07qtd8jAADJ1LEQ3KlTLbupkUmHWrWPctZPniSEtFalial6Ua/0tdqEXt6vAAC0U1tDcLdDQiOzzrZjf5Vmya2nj41eL9mu38Nmo5btvK53vW69r6rN5tyIjcGv0mncjer2tbb1vG7drhsAAAy2jl4T3OiEOLTWA5/6ZMtDXBLu89wLs2w3sl63NdvPVr9fAQBItraH4GqjTrXc+qhawGrHJEW13FKnX3T7C4ZOvq6VZp4ut996X592vIatmvCt27/rSmrtTy8/BwAA+l9HrgneeHpjtVN3q+n2iFy5Pjb7vKrp9eslK53Wu14nrp2utq9qj5XTS6GsntOGW/HeqbZdpd95L71uAAAkW8dOh67l3rGV1unUKZG19KORNlulmZDR7tsTVdt3q1/Xetqq5bnXc3/jWrepR6dfg3bst9YZw3v9/QoAwOBKFQrFUrc7AZ3Q66fZ1tq/dkzO1axuvLbpdKoj+0mqon8aAIAB1dGJsQAAAKCbhGDoAb0+Sl2rfu47AADJ0JGJsYDBJvwCANAvXBMM9CXXBLeXa4IBgEHldGgAAAASQwgGAAAgMYRgAAAAEkMIBgAAIDGEYAAAABJDCAYAACAxhGAAAAASQwgGAAAgMYRgAAAAEkMIBgAAIDGEYAAAABJDCAYAACAxhGAAAAASQwgGAAAgMYRgAAAAEkMIBgAAIDGEYAAAABJDCAYAACAxhGAAAAASQwgGAAAgMYRgAAAAEiPb7Q4ANKJYLHW7CwAA9CEjwQAAACSGEAwAAEBiCMEAAAAkhhAMAABAYgjBAAAAJIYQDAAAQGIIwQAAACSGEAwAAEBiCMEAAAAkhhAMAABAYgjBAAAAJIYQDAAAQGIIwQAAACSGEAwAAEBiCMEAAAAkhhAMAABAYgjBAAAAJIYQDAAAQGIIwQAAACSGEAwAAEBiCMEAAAAkhhAMAABAYgjBAAAAJIYQDAAAQGJku90BAACAflQ682yUzh2J1Px0lJZmIvJLEaViRKkUEcWIUlz4L771Z6kYkVr/cykiFakolUqX/3lxvQuPX/yztLZZOlK54YixLRFTuyO1c3+k9t7Qyafe11KFQrFUfTUAAACikI/SsUejdPLxiPzihVQbcfHP0oW0Wiqt+/vF7db+LK5r61JITl3cJvWt0LsuBMfGn9eH67gQjlNDoxHX3hbpG18SkR1qxzMfGEIwAABADUqnnojS4S9ErC5FFNdC77oQvD78XhwJXgu1G0eCLxvhXRsBLqWiFN8aCb6wfSliclekdl8fqW1XRWpye6SGxi60tbIYpdnTUTr9fJSOPR1x/lSkhkYjffDVkTpwa4dfnf4hBAMAAFRRPPQ/Ik4+fmXovfTzWvBdPwq8yUjwxlOkNxkJvtB8KWJqb6Svf1mkd19fWx+PPxOFb34xUmdPRPoFt0f6znuaes6DSggGAACooPjM30Scfjq+FXKj5pHgeq8JLhYvBufr7o7sC1/ZUH9XH/8fUfr65yOz/6ZIv/xNDbUxyEyMBQAAUEbx8Ocjzj5z8adUXEqv6/56yWXLNlvhYgBe93Bq/Y8X83P64Bsis/9FDfc5e+srYnVsMgpfvj8iNxzpF7+24bYGkRAMAACwidLppyKmv7Euy64LtZudT1u68ocLJzlfvvSya4Iv/lwsXTgFOnXzPU0F4DXZaw/G6mo+Co88GLF1d6RfcLDpNgeF+wQDAABsVMxH6ehDF/5+2fDtlX+9tGD9sO7FHzaulkpt+DPWzqIuRey7JbLX3tl019dkb7gz4sAtUfzqZyJWV1rWbr8TggEAoMNWV/OxvLwUCwvzMT8/F/Pzc7GwMB/Ly0uxuprvdveIiNLxxy7MAh1R40jwxkmwNp96qbTxGuGL/y+k0pG96dXNdHlT2dteFYX8chS/8aWWt92vOnY69J23lf9G45GvPtKpbgD0lHK1UV0EkqbSseKaQaiNq6v5WFlZuXDbmw1KpVKsrq7G6upqrKysxNDQUGSzuS70srwH738wIiJe84bX1PX42vJyyrXX7LbNKJ1+8vLzlddmcW7xNcFRunAqdGr/nZEaHm/hM7i4m5HxSN1wRxSe/mqkX/RtLWv3F/7VL2y6/D3vfU/D65Zbr1LbjWj7SPCdt91ZU1EDSJJqtVHtBBg8KyvLsby8vGkA3qhUKsXy8nKsrCx3oGfd9+D9D1YNu+3YtpzSucMXRoE33t6owWuCN1ultG4kuFgsRuaq9l2zmzlwaxSXFqN09KmWtFcprG58rJ51a9lvvdtspmMjwZt9c+cAD0iijbVvY31c//idt905ECMfALUa1GPGlZXlyOfrP815bZuhoeFWd6krNhu1XR9gH7z/wbIju81sW7fZExf+rGskOBWRKq1b/8IKm14TXPrWn1EqRWlkS2Smdram75vIbN0ZKxNbonTycKSuvqGpttaH0M1Gctcvq2fd9aqNJlfathZtDcFrBcsBHMCVytXGteWDcNAHwIVToBsJwGvy+Xyk0+meOzW6VdaCayOjuc1sW9HimQt/1jUSXPs1wal1qxejFDGxq9keV5XasjOKZ0607FTgzUJoPaG23hC7tn5fjQTXq9rBX6WRk0rrNbtNLduXa6fR/VUbNdps3XL7LrdtrfuoZb1WtlVu3XrbrmUf0AmNBNuNo8H11p5y29Uz2tKKz1o9/a63ltUz70Sr2m7Xvy/t/rel0r8HtXx5Xcv+WvG7hlq067hns+3Xb1Pv+3VlpfysvA9/6dHLfn7xS+8o28aghuCNmhnRbdVocGl57sJfOnFNcDEiRiab7nNVY5NRPHW0/fvpkGZGgwd+duhGrqvr9OhLuT7Wu7zV+25kWa3rtOp51buNkTV6RS0HUK0KBfV8zutto9L6rdZom+363Jdrt1fqTC/9DqCTqr1PG6mHzQTg1dV82WuANwbgcssi1ibNGuxZo5sJry2fHGv14rXYHbomONIdGJvMZKPUwmvM67k+t1XX8ka0ZnKsjowEN3NNWz3f9te7fqVvwevpczv72Mj6jdjsm85yr0GrDt4beV7NjIA08ruFXtZMLan3c96Kz1ozo3+11r121Mt6nmMjI9W17rfV9a7eMwzqeW5GeumWej5rjdSfRt7HhUKh4uPrR37LBeD1bfXKaHDLTz/uOetv4httuya4dPG06WKh/V9wFFfzLRkBfc9733PF9bnrH2t03U5q60jwxn8EN/7XCfVeW9eNf6Q362Olg4ZWXS9Ybh/NniLX6DqNPK96tnEARhLV8zmvxGftcr3+HHu9f5vpxjECvaNTX5Y08wVco32rFILLnfrcSFu0WHbowp9tuiZ4/falSEVpYbbxvtaouHA+UrmhlrT1nve+p+ZbIdWzbqf07DXBneIf2sF9DQb1eUEj2vl5aPdnbf1BayOnOdZ7PXOz6zayfrNq3d/G13JtNLjc8mb21Sxn7VCvempFvZp5L9ZyO6SIb40CVwrGtbbVCdXuE9zvUsMTUcovduSa4FREFM6faGHvN1c8ezLSE1ta2uZmM0GXu1a3nnXbre3XBG88FW79f+V04ttA3zQPLr9b+kEt79Fefx934rPWivabaaPe59jp0NaNM6va2f7GY4Re/wzQO/qhFpXz8JcerSkAJ0EzAbrl9wke3X7xL3H5n224JjiViojFmcjPnGysszXInz0ZMTcT6a2727aPesJsM8G3L2aH7vV/wAb1XnT1GNRv2v1u6UWNjFC04jPazs95Jz5r7ZijoVVzSNSyTbtrT6P9Wx+i63mPdPK5MfhaOfjR6lq3vmY3enZCKpWqaQS3lgCcSm28unQw9cIEWanJvVGa/kZHrglOpVKRSadj6dDXItemkLr0zNcik05Heu+BtrTfDc0E6baOBDdyHUWzhXDjP8a9OCFHLX2s9C14q59TPbMklut7res0+7z64fcLtSo3iteO0b16PuebPdbNz1o/fb4HuSYN8nOje7oVgGs5ntms3UZqcyaTqfj4i196R80jwNXa6lcP3v9gwyO5zWxbSWrL/ojsSNuvCU7FxRCcSUX+mS9HYWm+6b5vVFicj/w3H47M8Fikrr6xJW1uNhpbboS2nnWr7bNV1xF35JrgRiYfaHSWylq2bXTdVmp3H6uF2LXTzdZ/u1lJLevW016t6zSzndEJetXG0eB6RyAb3Ve7rmvtpc9au/rSS89xM73ev1oMwnOgPvUc921cr5m7jjRSE5sZEc5kMrG6ulr28XpOhR6EEFwtsFYayW1m20akdtwYpRNf6cg1wel0OnLpQsw++qnYevdbWvk0YvahT0U2VYrs9be3pL311/Nupty1v9XW3Wwf5TR7HXHbRoK79Y9Zrbf0qXZdcjs128dW9r1cO/X0sZF1Gn1ezbQPvaTa+7Rbn/NKj3Xjs9aKLwGaaaOe7bsxUtqq51etjX58biRLo6fz17N9oyPC2WyuJacxp1Kpnrk9Uju85g2vaTjENrNtJam9ByMywxd+aOM1wZGKSKdTkc1monj0sZj95heb6PXlZr/+xSg++3gMjYxF9taXtaTNSgF0s1skNdJOpW1aMZFWqlAo9sw0c/X8I7tx3X44TasX+tgLfWhEv/Yb+o3PGtApjdSbfq1Rq6v5WF5ebqqN4eHhgQ7Bvap0+qkoPfeZiChFFEsX/iwVLz5YvJBkL/1cioiLy6J08bGNp0hf/HPD30ulVBQLhVjJF2NhMR+jd705Jm5oblBx7olHYvHzH4+x3FCMvPzeyFx3W1PtDZK2zw4NAABJls3mIpdrPMDmcjkBuEtSO26I2Hlzm+8TfGGSrFQ6HblsOkaGs7Hw5Y/FzCMPNNzvmYcfjIXPfzxGcrkYufEOAXiDxN8nGAAA2m1o6MJptfl8vq7tcrncpW3pjvSBu6NYWI44/XS065rgiIh0KiIy6Ri6+H3H8jc/FyePPx3jB18d49fcVFNf5w9/M+a/8plIz5yM0aFcjB64NTIveUNN2yZJT4XgZq/noDqvGwBAdwwNDUc6nY6VlZWqt01KpVIxNDRkBLhHpK/7jihmchEnH//WwjquCU5tWJqKi7dHWv9zRKQvXCAcw0OpSKdSsTI/HbOf/n/j/MTOGNn/whjec20MbdkVmdHxiLgw8/PKzHQsn3gulo48Eanzp2I4k4uh4VwMX3dHZAXgTfXUNcEAAJAEq6v5KBQKUSgULgXiC7fKyUQmkxF+e1Tp1BNROvyFiNWlll4THHHxpsGRurh5KYrFiEKhGKurhcivFmN1tRirhWIUi8UL75lSRCqVjnQqFdl0OrKZTOQymcgNj0Xu9m+P9LUv6tCr0n+EYAAAgFoV8lE69miUTj4ekV+8cqKstQAcxSsD78XVUut/LkWkIhWlUumyP4vFuBiGS1EqlqJQLEWpcOHP9e2lU6lIp9KRGR6N7LW3R+bml0VkhzrwQvQvIRgAAKABpTPPRun8kUjNT0dpcSYiv3RlGN44Elxc30BsOhKcim+F5eLFn4vF0qXJqVORisgNRWpsa6S27I70rgOR2ndDh551/xOCAQAASAy3SAIAACAxhGAAAAASQwgGAAAgMYRgAAAAEkMIBgAAIDGEYAAAABJDCAYAACAxhGAAAAASI9upHf2H3/j1ePeP/0Tb2/gPv/Hrl/7e7P4A+s1aDayl/tVal9fX1fU227YVtR5IlnpqTD1tldu+VeuUW3+9Su2rldA9qUKhWGr3TloRTKu1sfHAr54DQYB+V28NrLVG1rKeLx+BZrRqoCSicg2stU6uX15PDWznQM3G10iIhua0PQSvfUibCaWNtiEIA0lRzwFRPQditYRpNRZoRrvqSCMBtpbw3Oh+WhX0q+0LqK7t1wS34kPqgw5QXiMHV62oqwIwMIg21rVOXM5Xi3f/+E9c+g9oTseuCe6Wer6VK/ft3/pR6Hr3AbDRZvWk3Ol4ldap1HanRm4b7SfARu04g6+WtjpRsyrVymp1dLO6vdkp25tRj2FzAx+CW8V1GEArbfYF3PqfawnFG63/0q7SKX2t1Eg/ATaqVr/qaWdNLx2rVaqV9U4yuLHOOkaF+vXsLZKaPZBSBIBBU6kurq95lU6X69aIB0AltdSvjcqNoK79V60WdftYsZFaqb5Ca3R1JLhdp290u6gB9Bp1EehVtc4+X892a4+Xq329VBPrDba1BHygsq6G4HbNBNgrRQ2gl2x20GQWfaCXJeVYsZZLS3qx39CvevZ06EZ0szj4Rg6oRa21op4JpyrdO339Ohv/W7+8USbGApqx/hrg9csaaafWZZVq1GajrK2+vdH6fdW6rgAMrdWR+wRvpp4Pci1tNHK6TK1FdrNv5yrN0gewmWo1p1JNq2dm6Fq3qeWgqtb7Y9a6T4CNWvVlWi2zLJdTbb167jVcS9+qTZS1vj7Xc+9iYRlq0/YQDMAF1Wb7dOACANB+A3U6NAAAAFRiJBgAAIDEMBIMAABAYgjBAAAAJIYQDAAAQGIIwQAAACSGEAwAAEBiCMEAAAAkhhAMAABAYgjBAAAAJIYQDAAAQGIIwQAAACSGEAwAAEBiCMEAAAAkhhAMAABAYgjBAAAAJIYQDAAAQGIIwQAAACSGEAwAAEBiCMEAAAAkhhAMAABAYgjBAAAAJIYQDAAAQGIIwQAAACSGEAwAAEBiCMEAAAAkhhAMAABAYgjBAAAAJIYQDAAAQGIIwQAAACSGEAwAAEBiCMEAAAAkhhAMAABAYgjBAAAAJEa22x3oZ8VCIRYWFmJpaSFWlpdjZWUlVlfzUSwUolgsdrt7XZFOpyOdyUQ2m4uhoaEYGh6OkZGxGBsbi3Qm0+3uAW2mLl5JXYTkUhOvpCbSC1KFQrHU7U70k3x+JWbPnYu52fOxuLgQY+PjMTIyFsMjI5EbGopcNhfpTCbS6WQOsheLxSgWCpFfzUd+ZSWWl5ZiaWkhFubnY3R0LCYmp2Jyy5bI5Ya63VWgRdTFytRFSBY1sTI1kV4gBNdobnY2Zs6ejsWF+Zic2hqTU1MxPjHZ7W71lfm52Zg9fz5mz8/E6Nh4bN22IyYmvYbQr9TF5qmLMDjUxOapiXSKEFzF3OxsnDl1MoqlYmzdtiO2btve7S4NhJmzZ2Lm7OlIp9KxfeduBQ76iLrYHuoi9Cc1sT3URNpJCC4jn1+J6RPHY3lpKXbs2h1TW7Z2u0sD6fy5mTg9fTKGR0Zi1569Tn2BHqYudoa6CP1BTewMNZF2EII3MXP2TJw8/nxs37krdu7a0+3uJMKp6RNx5tR07N57lW9QoQepi52nLkLvUhM7T02klYTgDY4fOxpLiwuxZ9/VMTo61u3uJMri4kKcOHY0RkbHYu++q7vdHeAidbF71EXoPWpi96iJtIoQfFGxUIijRw5FNpuNfVdf0+3uJNqxo4djdXU1rt5/wFT50EXqYu9QF6H71MTeoSbSLCE4IlZXV+PIoWdjfHwidu3Z2+3uEBHTJ47H/Pxc7D/wgshm3c4aOk1d7D3qInSPmth71ESakcwblK1TLBTiyKFnY2JyUlHrIbv27I2Jyck4cujZKBYK3e4OJIq62JvURegONbE3qYk0I/Eh+OiRQzE+PmFSgx60c9eeGB+fiKNHDnW7K5Ao6mLvUheh89TE3qUm0qhEh+Djx45GNpv1rV4P27Vnb2Sz2Th+7Gi3uwKJoC72PnUROkdN7H1qIo1IbAieOXsmlhYXTGzQB/ZdfU0sLS7EzNkz3e4KDDR1sX+oi9B+amL/UBOpVyJDcD6/EiePPx97TK3eN/bsuzpOHn8+8vmVbncFBpK62H/URWgfNbH/qInUI5EhePrE8di+c5d7u/WR0dGx2L5zV0yfON7trsBAUhf7j7oI7aMm9h81kXokLgTPzc7G8tKSyQ360M5de2J5aSnmZme73RUYKOpi/1IXofXUxP6lJlKrxIXgM6dOxo5du7vdDRq0Y9fuOHPqZLe7AQNFXexv6iK0lprY39REapGoEDw3OxvFUjGmtmztdldo0NSWrVEsFX3DBy2iLvY/dRFaR03sf2oitUhUCJ45ezq2btvR7W7QpK3bdsTM2dPd7gYMBHVxMKiL0Bpq4mBQE6kmMSE4n1+JxYX52Lpte7e7QpO2btseiwvzZv+DJqmLg0NdhOapiYNDTaSaxITg2XPnYnLKqS2DYnJqa8yeO9ftbkBfUxcHi7oIzVETB4uaSCWJCcFzs+djcmqq292gRSanpmJu9ny3uwF9TV0cLOoiNEdNHCxqIpUkIgQXC4VYXFyI8YnJbnel7TKZdGQyg/9rHZ+YjMXFhSgWCt3uCvSlJNTFtXq48b9BpS5C4/q5JtZa2+qtif1eQ9VEKumfd3ITFhYWYmx8vNvdaLt+KkytMDY+HgsLC93uBvSlQa+La/WwUChe9t/6xwaRugiN6deaWE/4jYgr6mG5NtYvq2X9XqUmUk7/vIubsLS0ECMjY93uRlutL25JMTIyFktLChs0YpDrYqV6OOhBWF2ExvRjTaz12G/t8Y3r1XLMuH6dfjzGVBMpZzCPAjZYWV6O4ZGRbnejrTZ+S5cEwyMjsbK83O1uQF9KQl1MInURGtOPNbGeY79y6222fJC+SFQTKac/3sFNWllZidzQULe7QYvlhoZiZaXzU99/+sHPxKcf/EzH9wutpC4OJnURGpPUmtgvYbZR3aqJEepirxvsd/5Fq6v5yGVz3e4GLZbL5mJ1Nd/tbkBfGuS6WGmkYtAvHVEXoTGDXBOTTE2knGy3O9AJxUIh0plMt7tBi6UzGTP+QYMGvS4WCsWyM5kOagCOUBehUYNeEzcz6F8KRqiJlJeIkeBisRjpdCKeaqKk0+koFge3cEM7DXpdrHbbj0GlLkJjBr0mJpWaSDltHQn+1V/9lZrW+8mf/Kl2dgOaUu56jo3LX/2aV3WiO/S5Wq8P8n5qXLXRjbUR4kEe/Wg3dZFWUhc7LwmjwJ2mLvaXRHzl5VugweRbW2icujiY1EVoTJJqYpICsJpIOW0dCe6VEd616wF8CAZLp67f2fiN3do3er7JoxG98r5RFweTukg/6oX3TVJqYpICcERnr/VWF/vLYH/SL8pmc5E3M9zAya/mI2smR2iIujiY1EVoTBJqYq0BeJBm2FcTKScRIXhoaCjyXbpHGO2TX1mJoQTe0w9aYZDr4iAdwNVLXYTGDHJNjGi89q2vo/04qaCaSDmJuEXS0PBwLC8tRWzpdk/ao9KB3ppBPOBbXlqKoeHhbncD+tKg18Wk3iJJXYTG9FtNbPTYr1KQXb/+Wg2ttd1epSZSTiJC8MjIWJw9M93tbrRNPxWjVlpaWoht23d1fL+u7WAQDHpdjEhmbVQXoTH9VhPrrW+N1MNBqKHdqokR6mKv67/zGhowNjYWC/Pz3e4GLbYwPx9jY2Pd7gb0JXVxMKmL0Bg1cTCpiZSTiBCczmRidHQs5udmu90VWmR+bjZGR8c6NuMfDBp1cfCoi9A4NXHwqIlUkogQHBExMTkVs+fPd7sbtMjs+fMxMTnV7W5AX1MXB4u6CM1REweLmkgliQnBk1u2xOz5mW53gxaZPT8Tk1v6ZPYK6FHq4mBRF6E5auJgUROpJDEhOJcbitGx8Zg5e6bbXaFJM2fPxOjYeORypryHZqiLg0NdhOapiYNDTaSaxITgiIit23bEzNnT3e4GTZo5ezq2btvR7W7AQFAXB4O6CK2hJg4GNZFqEhWCJyYnI51Kx/lzTnXpV+fPzUQ6lY6JycludwUGgrrY/9RFaB01sf+pidQiUSE4ImL7zt1xevpkt7tBg05Pn4ztO3d3uxswUNTF/qYuQmupif1NTaQWiQvBE5OTMTwyEqemT3S7K9Tp1PSJGB4Z8c0etJi62L/URWg9NbF/qYnUKnEhOCJi1569cebUdCwuLnS7K9RocXEhzpyajl179na7KzCQ1MX+oy5C+6iJ/UdNpB6JDMG53FDs3ntVnDh2tNtdoUYnjh2N3XuvMssftIm62H/URWgfNbH/qInUI5EhOCJi67btMTI6FseOHu52V6ji2NHDMTI6Flu3be92V2CgqYv9Q12E9lMT+/nfQusAACAASURBVIeaSL0SG4IjIvbuuzpWV1dj+sTxbneFMqZPHI/V1dXYu+/qbncFEkFd7H3qInSOmtj71EQakegQHBFx9f4DMT8/Z/KDHnRq+kTMz8/F1fsPdLsrkCjqYu9SF6Hz1MTepSbSqMSH4HQmE/sPvCDmZmd9y9dDpk8cj7nZ2dh/4AWRzmS63R1IFHWxN6mL0B1qYm9SE2lGqlAolrrdiV5QLBTi6JFDkc1mY9/V13S7O4l27OjhWF1djav3H1DUoIvUxd6hLkL3qYm9Q02kWULwBsePHY2lxYXYs+/qGB0d63Z3EmVxcSFOHDsaI6NjruuAHqIudo+6CL1HTeweNZFWEYI3MXP2TJw8/nxs37krdu7a0+3uJMKp6RNx5tR07N57lZn9oAepi52nLkLvUhM7T02klYTgMvL5lZg+cTyWl5Zix67dMbVla7e7NJDOn5uJ09MnY3hkJHbt2evebtDD1MXOUBehP6iJnaEm0g5CcBVzs7Nx5tTJKJaKsXXbDt88tcjM2TMxc/Z0pFPp2L5zd0xMTna7S0CN1MX2UBehP6mJ7aEm0k5CcI3mZmdj5uzpWFyYj8mprTE5NRXjEz6M9Zifm43Z8+dj9vxMjI6Nx9ZtOxQ06GPqYvPURRgcamLz1EQ6RQiuUz6/ErPnzsXc7PlYXFyIsfHxGBkZi+GRkcgNDUUum4t0JhPpdDLvPlUsFqNYKER+NR/5lZVYXlqKpaWFWJifj9HRsZiYnIrJLVucygIDRF2sTF2EZFETK1MT6QVCcBOKhUIsLCzE0tJCrCwvx8rKSqyu5qNYKESxWOx297oinU5HOpOJbDYXQ0NDMTQ8HCMjYzE2NmYKe0gAdfFK6iIkl5p4JTWRXiAEAwAAkBjJPA8DAACARBKCAQAASAwhGAAAgMQQggEAAEgMIRgAAIDEEIIBAABIDCEYAACAxBCCAQAASAwhGAAAgMQQggEAAEgMIRgAAIDEEIIBAABIDCEYAACAxBCCAQAASAwhGAAAgMQQggEAAEgMIRgAAIDEEIIBAABIDCEYAACAxBCCAQAASAwhGAAAgMQQggEAAEgMIRgAAIDEEIIBAABIDCEYAACAxBCCAQAASAwhGAAAgMQQggEAAEgMIRgAAIDEEIIBAABIDCEYAACAxBCCAQAASAwhGAAAgMQQggEAAEgMIRgAAIDEEIIBAABIDCEYAACAxBCCAQAASAwhGAAAgMQQggEAAEgMIRgAAIDEEIIBAABIDCEYAACAxBCCAQAASAwhGAAAgMQQggEAAEgMIRgAAIDEEIIBAABIDCEYAACAxMgeOfxst/sAAAAAHZEqFIqlbncCAAAAOsHp0AAAACSGEAwAAEBiCMEAAAAkhhAMAABAYgjBAAAAJIYQDAAAQGIIwQAAACSGEAwAAEBiCMEAAAAkhhAMAABAYgjBAAAAJIYQDAAAQGIIwQAAACSGEAwAAEBiCMEAAAAkhhAMAABAYgjBAAAAJIYQDAAAQGIIwQAAACSGEAwAAEBiCMEAAAAkhhAMAABAYgjBAAAAJIYQDAAAQGIIwQAAACSGEAwAAEBiCMEAAAAkhhAMAABAYgjBAAAAJIYQDAAAQGIIwQAAACSGEAwAAEBiCMEAAAAkhhAMAABAYgjBAAAAJIYQDAAAQGIIwQAAACSGEAwAAEBiCMEAAAAkhhAMAABAYgjBAAAAJIYQDAAAQGIIwQAAACSGEAwAAEBiCMEAAAAkhhAMAABAYgjBAAAAJIYQDAAAQGIIwQAAACSGEAwAAEBiCMEAAAAkhhAMAABAYgjBAAAAJIYQDAAAQGIIwQAAACSGEAwAAEBiCMEAAAAkhhAMAABAYmQ7vcN7Xvf6TZc/8KlPdrgnAAAAJE2qUCiWOrGjcuF3I2EYAACAdunI6dCbBeAHPvXJTQNvrWEZAAAA6tX206E3htqNwXftZ+EXAACAduvoxFiVTnVe/5hADAAAQDt0fGKsRjV7TXG5U7Kr7e+BT32y7sm8Gl2/2unhGx9vdLt+6mcjE6lVe680ct15Lf1o5++jni+Gyr3+ldbZbP1aX+Na9letPQAA6JS2jgTXcuDfbve87vVlD8prCRaV1tnssXrX74ZKr8na472gkT62uu/VXqte3kc73/uNbNMr7ysAAJKtb0aC1zQzmdZmI1b3vO71VQN6rSNdtfSxlv01q9FRw/XbdaKftajntWxkdLKZvtTaZitGcSvtu5bfU6Pv/c30+vsfAAAq6eg1wZ3WrpHoStcvd/sAv1pAqfSadLvvG3W7P9XeP7X0r5nfR637aKTdRtrZ7OeNuv07AwCAavpuJLgdKo1ONXtQ38lTQDu1r0b302z/+u102n7oby0js82M3vbDawAAQLJ0LAR3+zTIXg+IrVTvREq9qt7nsP5599Lz7/bvo9F9b+x3u64jBgCATmprCO72wf96nQjg7b4mtZZ9d+J5Nnpddj3bNfpa9sp7rpO/j2pa0YeNv49qk8J1+v0PAAC16ug1wbXOHNsLwWFNPxy890Mfu+WBT32y4++nQfp99Pp14wAAUK+2h+BqI0LtvAVNpQmsqi2vpFcDe72zBNc76VE/aOXvptr7pxWTRDW7j0bbraftXnqPAwBAszpyTXA91xa284C7kUBRz+m1zV6TWstMwq2ewKvcPrsdfHrx+t5mbnXUjn10st1aA32v/c4AAGCjjp0OXcu9eNsRvKq128w+67mlTaue22bhot5b67TzNWmlZl7LVp3G28j7stW/j0Z14/fc7vc/AAA0K1UoFEvd7kQv6qWJjSJ69xRsAACAftLRibEAAACgm4TgPmMUGAAAoHEdmRiL5gm/AAAAzXNNMAAAAInhdGgAAAASQwgGAAAgMYRgAAAAEkMIBgAAIDGEYAAAABJDCAYAACAxhGAAAAASQwgGAAAgMYRgAAAAEkMIBgAAIDGEYAAAABJDCAYAACAxhGAAAAASQwgGAAAgMYRgAAAAEkMIBgAAIDGEYAAAABJDCAYAACAxhGAAAAASQwgGAAAgMYRgAAAAEkMIBgAAIDGEYAAAABJDCAYAACAxhGAAAAASQwgGAAAgMYRgAAAAEkMIBgAAIDGEYAAAABJDCAYAACAxhGAAAAASQwgGAAAgMYRgAAAAEiPb7Q4A9Kp0OtXtLgAA0GJCMEAZxWKp212AvuPLIwB6ndOhAQAASAwhGAAAgMQQggEAAEgMIRgAAIDEEIIBAABIDCEYAACAxBCCAQAASAwhGAAAgMQQggEAAEgMIRgAAIDEEIIBAABIjGy3OzCISsuLsfzNL0f+2a9F/uhTsTp9NIoz01Gcm4lSYTVS2VykxiYjs2VXZHfvj9z+F8bQ9bfF8C0vj8j4lQAAALRLqlAolrrdiUFQyq/Ewuf+Ipa+9IlY+upnG2ojlcnFyF33xOjdb4rRl7y+xT0EgPZLp1Pd7gIAVCQEN6l4/kzM/eV/ibm//lCUlhZa1m5277Ux8cYfjPHXfm/L2gSAdhOCAeh1QnATZj/2hzH7Z78bpfxy2/aRO3BzTH33j8XI7a9u2z4AoFWEYAB6nRDcgPyhb8TMH/1SrDz5SMf2OXHvD8WW7//Jju0PABohBAPQ64TgOi189s/j7B/8fESx2PF9D9/ystj2w78QmW27O75voDlfenquLe2+9PqJmD6fj0OnWn9Gyu6pXFyzc7jl7TLYhGAAep0QXIe5j78/zv3Jb3S1D9nd18T2H/3lyO1/YVf7AdTn7p99uC3tfu4XXxx/8tlT8b4/O9Lytr/nlTvjZ962v+XtMtiEYAB6nfsE12j2z3+/7QE4lclG7pqbI5XNlV1n9eThOP3v3x35w99sa18AAAAGkRBcg7n7Pxjn//S32reDVCom3/ojse/XPxW73/tHsfeX/yJGXnxP2dULM9Nx5rf+eRTOnGhfnwAAAAaQEFzF0sMPxLkP/HJb9zH5nf8opt76zkiNjEVERHpye+z4sfdF7uobym6zOn0kzv7+e9raL4B2uPO2O+PO2+5sep219erdphntbh8AaD8huILC2ZNx9v3/uu372XTUN5WOkTtfU3G75W98Kc598Ffa1CuA3iaQAgCNyHa7A73s3AffF8XZMw1vn8rmYvjgK2L41rsju++6SOWGo5RfjsKp52N1+kisHn0qlr76mSitLG26fbnl68194o9i+OArYuSOb2+4nwCd9MhXH6kYYDeO7j7y1dpuR1fregBAsgnBZSx+/r/H4pfub3j7iXt/MCbf+s5Ij05UXO/4T7855j/5/8TwzS+9bHlpeSEWv/TJmvZ1/k9/SwgG+k49AbccwRcAqFfXQvD0yVMxc/ZszM3Ox9LyUhQLxUhn0jEyPBITk+Oxddu22LV7Z7e6F+c/+nsNbTf0whfHyhMPR/75p6sG4IiIqe/+sTj7Bz8f5z/8mzH51ndGKpuL1ZOHY+Y//9sonK1t4qv84W/E/F9/KMZf+30N9Rmg16yF23IjxpWWbxaM1y9fv225EL2x/VrCdrVtKoX+eh9rpH8AwAUdvyb4yOGj8fnPfiGmT07H5NRU3HTrTXH3K18er37Nq+LuV748brr1ppicmorpk9Px+c9+IY4cPtrpLsbC3/5ZrD7/dF3bpLK52Pr3/0Xs+pnfj+Fb747lr30uVp6sflAy9ur/KcZf8/aY/Ys/iOP//DvjxL/4u3Hi594Wy49/vq79z33iA3WtD9BNtYbPcssqtVHO2sRZj3z1kYohe7OQXO307bXH1/ep1ueytqze9as9DwBgcx0LwfNz8/HIQ4/G/Nx8vOiOF8XB226Nvfv2xPj4WGQymYiIyGQyMT4+Fnv37YmDt90aL7rjRZdt17G+PvjhurfZ/s5/F+Ov/d6IiNj6Qz8TqUw2zn3wfZceL62uxOqJ52Ll2a9Fce7cZdtu/Qf/Mvb+yl/Glu//ZzH2bd8V2/7Rv4qh615U1/5Xjz9X8+nTAL2i0+FtfUjdLEBuFjDX/l5rIG11ON0sWG98HkaCAaB2HTkdeubsTDz+2Nfjuuuvi7379tS83fj4WNx8601x/NiJePSRr8StB2+Jrdu2trGnEflnH4uVp79S1zaT3/m/xMhdr730c3bvC2L8jX8v5v77f47Z/+//ivyRJ2Lxob+OKBYurZPZsS9GX/53YuLeH4rMlh2R2bIjxl75nZceH3nxPTH9b98Rq8efq7kfi5//eIy+9PV19R0G0ZPfeDIOPXcopk9Mx+zsbKzmVyOby8bk5GTs2rMrDlx7Tdx48wu73U3K2BjwNgbJRoNlt4NipQnBqk0WBgC0TttHgufn5uPxx74eN99yU10BeL29+/bEzbfcFI8/9vW2jwgvPvxAXevnDtwcU2/70SuWj3/Hd0dExPn/9tsXJthaF4AjIgqnj8Xcx98fJ37mLTH70d+LKJUuezw9Nhk7/tdfi1Sm9u8pFh/6VJTyy3X1v1613reznlMaoVUe+uJD8f7ffX888Y0nYu++vfHG+94Y7/gn74h3/cS74h3/5B3xxvveGHv37Y0nvvFkvP933x8PffGhbnc50apd51rpsW4E2nr3Wcsp35UC/mavx/oRZjUVABrT9hD85BNPxXXXXxfbd2xvqp3tO7bHdddfF08+8VSLera55cc+V/vK6XRs+8e/EJG+/GUsnDoap371ymC8mdLqSpz/yH+MM7/zsxGl4mWPZfdeGxN/5+/X3p9iMZYfq+9a4qRy8DhYTk2fig9/8MNxavpUvOXtb4n73npfHLz9YOzYuSNyuVxERORyudixc0ccvP1g3PfW++Itb3/LZdvRPUn/PK4/jbrcY+WWrYXhpL+GAFCPtobgI4ePxsjISMMjwBvt3bcnRkZG2jZZVmllKVae/mrN64/c8ZrIXXXD5W3kV+LUr/zTKJw5Xte+F7/4iTj3x//+iuUTb37HFSG7kpUnH65rv0nmoHEwHDl0JD7yoY/ELS+6Je69797YsXNHTdvt2Lkj7r3v3rjlRbfERz70kThy6Eibe0otagl93VLvviuN5DZr7Tpgk2MBQP3aGoKfP/J87D+wv6Vt7j+wP54/8nxL21yTP/zNutYfe8Wbr1h27o9/NVanGwvpc3/1X6+YFTo9PhUjt76i5jZWDn29oX1DPzo1fSo+/tGPxxve9IY4ePvBhto4ePvBeMOb3hAf/+jHjQh3QT0BbrNJofpVpdFbI7sA0F5tC8HTJ0/FxOREjI+PtbTd8fGxmJiciOmTrT9YXT15uOLjmW17InfNTZdGZnMHbrrs8eLcTCw8+KdN9WHuL//LFcvWT7pVzeqxZ5vaf6fUegpfPQeJG6+lK7dOtfUcmPaPB+9/MF71Ha+K6264rql2rrvhunjVd7wqHrz/wRb1jEZUCredCr7lQnm5+/hWWn/945tts9njlR5ba7dVt4wCgKRq2+zQM2fPNn0dcDnbd2yPmbNnY9funS1tt3D2xKbLU0Mjsf1dvxQjd3z7hfXOnIjT/+dPxenf/KnY/d4PRCp74ZrDhc98NEqF1ab6sPS1z0ZpcT5So+OXluX21z6LbeHM8QuTcKUzTfWjXTYeGJa7v+b6dVvRfrWDQ6cT9p+HvvhQTG6ZbHgEeKODtx+Mo0eOxkNffCjuetldLWmT/rQ2U/Nm9wuudf1q27Syb+3aFwAMqraF4LnZ+bhq/9VtaXtyajKOHT3W8naL8+c3XT71Pe++FIAjIjLb98SOd/9anPiX3x2Ln/3zGPuOt0VERL4VpyIXi5E/+mQM3fitA5zcNfXdyqVw/kxktu5qvi9tUu32J+1ofy0Ibwy7Dhz716NffjTe8va3VFyn+Ngno/jQR6P0/OMREZG66tZI3/WWSB/c/FZiL3n5S+KjH/6oENxhtX4Oa1mv3DrdWl5OM6Pe6hYANKdtIXhpeSlGRobb0vbIyHAsLS+1vN3Syua3Fxp71ZUH2pmtu2Loxjtj+alHL4Xg1dOtCeZn//BfRSo3EqWl+SguzUdpsb7bQpWW5iOiN0NwuVMDax2xbaR9Bs+T33gidu/dXXESrMInfyeKn//QZctKhx+NwuFHo3T8ici8/p1XbLNj547YvXd3PPmNJ+PGm29seb8BAOi+tl0TXCwUI5Npzym5mUwmioVi9RVbZXVl8+Ub7u17xc+N2tjshnsMQ9Ideu5wXHvdtWUfLz72ySsC8GWPf/5DUXzsk5s+du1118ah5w413UcAAHpT20JwOpOOQqE94a1QKEQ60/qup4Y2H7le/MJfXdmHc6di5alHY/iGOy4ty+68qiX92PYP3xO73/tHsecX/1vs+7VPxL5/f39d26dGJlrSD+hV0yemY0+FW68VH/po1TbKrbNn356YPjHdcN8AAOhtbTsdemR4JJaWlls+O3RExNLScowMj7S83fT41KbLz/3Jb0Rm255LszSvTYyV2bYnRl/5nZfWy117a8TnPtZkJzKR3TARVv7QN+pqIjO1rbk+VNGK05ahGbOzszG1ZfPPa0Rcuga4knLrTG2ZitnZ2Yb7Vs5Lrm/Pl1OpiNi9JdeW9g/sbM8lLQAA3dS2EDwxOR6z52fbEoJnz8/GxOR49RXrlNm2+chSaWXpUuhNT2yJ/NEnI4rF2PNv/jRSuaFL641923fF+T/5jaZmiB596RsiPXr5wezKU4/WvH1m+96uzgxdbcKpSgF6s1uFdHq25m7sk/qt5lcjl8u1pe1cLher+eZmed/Mb/9I+64xfu2LtsRrX7Slbe0DAAyStoXgrdu2xfTJ6dhb4ZTFRp05fSZ27W79xE/Z3ddUfLxw9sRlt1HKH/p6ZPccuPRzemJrjL3m7TH/qT9urAPpdEz93Ssn61n80idqbiK7r7n7pVaz8fYc64NrreFxYxCu5V7BjeynGd3YJ7XL5rKRz+fLBuHUVbdG6XDlL49SV9266fJ8Ph/ZXOtL47t+98mWtxkR8R//yY3xwGPn4oOfbv0p3Pcc3BJ/79t7c5I9AIBGtS0E79q9M5556pmYn19o6Wjw/PxCzM3OxcHbNj+AbUbumpvqWn/h8/89Rl/+dy5btuV//mex/NVPx+r00br3P/mmfxDZvS+4bNnqiUN1nQ49dODmuvdbr/WjpfXeq7Lee1yWu19ns6G00n1A27VPWmdycjLOnztfdnbo9F1viUKVEJy+a/PbK50/dz4mJyeb7uNGX356ruVtRlyYR+/kuXxb2r9ud+svOwEA6La2heCIiKv2XxVHDh2Jm2+tL1xWcuTQkbhqf2smoNooNTQSQ9ffFitPf7Wm9ZceeTDyR5+K3NU3fKuN3FDs/Kn/GNP/x49E4czxmvc9+tI3xtTbf+yK5ef+5NdrbiMiYujGF9e1fqMauSZ4fchsdl+1Lmtkeb3t03m79uyKE8dOlA/BB18fpeNPlJ0hOn3395W9V/CJYydi1x6jnwAAg6pts0NHROy/5upYWlqK48dOVF+5BsePnYilpaXYf83VLWlvM8MHX1n7ysVinP1P773i1kiZnVfHzp/8rZqaSGWHYupt/zS2v+vfRaQu/3UsPfq3sfTQX9fen3Q6hg/eXfv60KcOXHsgnnvmuYrrZF7/zsi89ecidc0dEZlcRCYXqWvuiMxbf27TewSvee6Z5+LAtZUvjQAAoH+1dSQ4IuLGF94Qjz7ylRgaysX2HdsbbufM6TPxzNPPxB133t7C3l1p9MX3xOxHf6/m9fPPPR7nP/ybMfU9775s+fzf/GlEREy99Z2RP/JELD78QMS6+/1mdl4dYy+/N8bf+IOR2XLlaFZhZjrO/v576uv7Xa+LVM5srgy+G2++MT79wKfj9KnTZUeDIy6MCJcb8d3M6VOn4+Txk3HfW+9rRTcBAOhBbQ/B4xPjcevBW+Lxx74e111/XUMTZR0/diKeefqZuPXgLTE+0fpZodfLveBgDF1/e6w8/ZWat5n92B9G7roXxehLLhxsrx5/NuY/8YEYesHBmHzrj0RERGl1JQqnj0VxcS6yO/dHeuLymVxXnn0slh/924iIyOy8Kubu/0AU58/X1ffRV7y5rvWhn93xkjviy1/4ctx7370ta/PLX/hy3PGSO6qvCABA32p7CI6I2Lpta9xx5+3x5BNPxbmZc7H/wP6aJsuan1+II4eOxNLSUtxx5+1tD8Brxl/z9rpCcETE2d/9uSj+wE/H+Gu/N2b+6y9FqbAaW37gpy89nsoORXbPtZtuO/eJD8S5D76vqT5n9157KYRDEtz1srviwx/8cDz2lcfi4O0Hm27vsa88FrPnZlsaqgEA6D0dCcERF0aE77zrjjhy+Gh87dGvxcTkRGzfsT0mpyZjZGQ4MplMFAqFWFpajtnzs3Hm9JmYm52Lq/Zf1dKJtWox9u1vjdm//M+x+vzTNW9TWs3HzH/5xVj4Hx+LlScejpHbXhVDN1afTXjx8x+Pc3/8q7Hl+38qxl55X6Qnt8XqycMx83//m1j++hdq3v/EG3+w5nVhULzmDa+Jj3zoIzE6NhrX3dD47cGeeeqZ+MzffCbe9n1va2HvAADoRR0LwWv2X3N17L/m6pg+eSpmzp6NY0ePxdLyUhQLxUhn0jEyPBITk+Oxa/euttwGqVZTb/nHceZ3f67u7VaeeDgiLtyvt7g4F+nRiYrrz3zwV2L8td8XE/d+K8Rmd18TO979a3HiPd8ThTPVJxXLHbg5xl/7vXX3Ffrdzl07481veXN8/KMfj1d9x6saGhF+7CuPxWf+5jPx5re8OXbu2tmGXgIA0Es6HoLX7Nq9M3bt7t0DztG73xSjX7o/Fr90f0Pbz/3Vf435T/1xDB98ZQzf+vLI7rvuskmriuemY/GhB6J4/kyMvvQNV2yfGh6NsVfcF7Mf+8Oq+5r67h9tqI8wCPYf2B9v+763xYP3PxhHjxyNl7z8JRUny1pz+tTp+PIXvhyz52bjbd/3NgEYACAhuhaC+8GWH/jpWP7ml6M4e7ah7Uur+Vh69G9i6dG/qbheuRmdS4XVqvuYeOMPxsjt395Q/2BQ7Ny1M97+A2+Ph774UHz0wx+N3Xt3x7XXXRt79u2JqS1TkcvlIp/Px/lz5+PEsRPx3DPPxcnjJ+OOl9zhGmAAgIQRgivIbNsd297xnjj9mz/Z1v0sfeVvY+j62y5fWCrG4hf+quJ2wze/NLb8wE+1sWfQX+562V1x18vuiie/8UQceu5wfOXhr8Ts7Gys5lcjm8vG5ORk7NqzK1548wvdBgkAIKGE4CpGXnxPbPl7/zzOfeCX27aPub/4gxh+4V0xfPAVERFRnD0TZ//Tz0fhbPnrgbO79se2H/6FtvUJ+tmNN78wbrz5hd3uBlX89q//drzrJ95V1/obrW1frq31yzdbp9J2G/dRyzbrl2/s78bHGmljs/4AAPURgmsw8YYfiNLSfJz/099qS/ulwmqc+tUfjdy1t0RqaCTyz3wtSqv5sutntu6K7T/2vshsr/+eywD9rFpAXK/a45W2qyWwVlNreF7/eLX1G31OAMC3pLvdgX4x+V0/HFu+98fbuo/8c1+PlScerhiAs7uviR3/23+I3H6jXADlNBpcN9vuXT/xrraHz0b7CwDUz0hwHSbe/I5Ib9kZZ//g5yOKxY7vf/iWl8W2H/6FyGzb3fF9A7TCZqOda1oVApsNlLUE3lpDcS3PTwAGgM4Sgus09m3fFbmrb4yZP/qlWHnykY7td+LeH4ot39/eCboA2q0Vpxm3Wy19qnYd8Wbr1ft8OzECDQBJJAQ3IHfg5tj1s/8pZj/2hzH7Z78TpfxKW/c19d0/FiO3v7pt+wDodbUGyF4N1uXU0t96roMGAKpzTXATJu/7h7H3l/48Jt/8jkiNjLW07ezea2Pr3/8Xsft//yMBGKAGrQjAnRx97bfADgCDwkhwk9JT22Pqe388Jv/uu2Lhc38eS1+6P5a++tmG2kplcjFy1z0xevebYvQlr29xTwF6S60ju7WuW097G5et37ZcEK43sFa69G8YHAAAAb5JREFURVIt7QnJANAeqUKhWOp2JwZNaXkhlr/5UOSf/Vrkjz4Vq9NHozgzHcW5mSgVViOVzUVqbDIyW3ZFdvf+yO1/YQxdf1sM3fLySGV8LwGD6O6ffbgt7X7uF18cf/LZU/G+PzvS8ra/55U742fetr/l7fYaYbO10ulUt7sAABVJXG2QGh6Lkdtf7TRmAACAHmMkGKADvvT0XFvafen1EzF9Ph+HTi23vO3dU7m4Zudwy9tlsBkJBqDXCcEAQMsIwQD0OrNDAwAAkBhCMAAAAIkhBAMAAJAYQjAAAACJIQQDAACQGEIwAAAAiSEEAwAAkBhCMAAAAIkhBAMAAJAYQjAAAACJIQQDAACQGEIwAAAAiSEEAwAAkBhCMAAAAIkhBAMAAJAYQjAAAACJIQQDAACQGEIwAAAAiSEEAwAAkBhCMAAAAIkhBAMAAJAYQjAAAACJIQQDAACQGNlyD6TTqU72A+igYrHU7S4AAEBXlA3BAEnny0AAgMHjdGgAAAASQwgGAAAgMYRgAAAAEkMIBgAAIDGEYAAAABJDCAYAACAxhGAAAAASQwgGAAAgMYRgAAAAEkMIBgAAIDH+f917YPbWjeHpAAAAAElFTkSuQmCC;labelBorderColor=default;" parent="1" vertex="1"><mxGeometry x="10" y="170" width="962" height="498.52" as="geometry"/></mxCell><mxCell id="6" value="" style="rounded=0;whiteSpace=wrap;html=1;labelBackgroundColor=none;labelBorderColor=none;fontSize=21;fontColor=none;noLabel=1;strokeColor=none;" parent="1" vertex="1"><mxGeometry x="20" y="180" width="300" height="40" as="geometry"/></mxCell><mxCell id="5" value="&lt;font style=&quot;font-size: 21px;&quot;&gt;Выбор конфигурации&lt;/font&gt;" style="text;html=1;strokeColor=none;fillColor=none;align=left;verticalAlign=middle;whiteSpace=wrap;rounded=0;fontStyle=1;labelBackgroundColor=default;labelBorderColor=none;" parent="1" vertex="1"><mxGeometry x="30" y="170" width="240" height="60" as="geometry"/></mxCell><mxCell id="7" value="" style="shape=image;verticalLabelPosition=bottom;labelBackgroundColor=default;verticalAlign=top;aspect=fixed;imageAspect=0;image=data:image/png,iVBORw0KGgoAAAANSUhEUgAAAPoAAAChCAYAAADupaIJAAAKPklEQVR4nO3dW2/aaB4G8CfmZAwm5EAgJc1Uq72slPtdab/RzEizn2NHmplvNNLMfaVerlZVGhoIBAgGY3zqXiRoEOVgCMlr/H9+l46L/2l4/B5svz4IgvAriCjRNNUFENHLY9CJBGDQiQRg0IkEYNCJBGDQiQRg0IkEYNCJBGDQiQRg0IkEYNCJBEirLuDq/RUA4MPHDwu3LzK/LxGttpct+qqTABF9S3mLvs6ylv7q/RVbdqKI9q5FZ7iJNhf7Fn0XlnX1l5001g0Nos4nrDspzf+7Vfuv23fbGkiGvWvRd+mlx/pX768WHmPV9mWfE3XfbfejZNu7Fn2bL+6iVi3KWH+TKwHP3X+betb9jPMZNBX7oEfpkm7Tbf3w8cOLt3bTY8wGbdnlxGX1LNt/k+MTxT7o87ZtmeL2hX+JeuL2O1J8xD7oUYK9ySTWOs9pQVVhwGmd2Ad9V1aNYVV4iRNJ3H5Hig/Rs+7zntuaz4dq1edtOpO+7LOJohDToq8LxuzPo+67TQs6O0EWJayb7M/w0zKJb9E/fPzwauPtRceJum3T7bPbXvN3pP10wDe1PNqk2z6/7z5O4JEsiW/RiYhBJxJBzGTcOpt0u9lFp33DMTqRAOy6EwnAoBMJwKATCcCgEwnAoBMJwKATCcCgEwnAoBMJwKATCcCgEwnAoBMJkPiHWn779Rd8/8OPS3+2yLL9ifZVooM+DfKqsDPUJEFiu+6rwk0kTWKDzpAT/UV5133ROHk+pFH22UUN6z5zvpew6N/N7rNsDiDKsYh2SXnQgW+DMmtRF3xVgDY1/fzffv0lcuCjWnYCIHpte9t131XYp+H7/ocfGURKrL0N+i4w2CSF6KATSaE06FG73y8xGTc7Jt+0nl157eORXMpWgV33JV81QRcl5FHuetv0BBI1mIs+Y9WkIocQ9NKUBn3Vran88hPtDsfoRALwBQ5EArBFJxKAQScSgEEnEoBBJxKAQScSgEEnEoBBJxKAQScSgEEnEoBBJxKAQScSgEEnEoBBJxKAQScSgEEnEoBBJxKAQScSgEEnEoBBJxKAQScSgEEnEoBBJxKAQScSgEEnEoBBJxKAQScSgEEnEoBBJxKAQScSgEEnEoBBJxKAQScSIK26gCQLgwC2bcNxbLiTCVzXhe97CIMAYRiqLk8JTdOgpVJIpzPIZrPI5nLQdQOGYUBLpVSXl1gHQRB+VV1EknieC+vhAUNrgPHYhlEoQNcN5HQdmWwWmXQGWioFTZPZmQrDEGEQwPM9eK6LiePAcWzYoxHyeQNFswTz8BCZTFZ1qYnCoO/I0LLQ791jbI9glsowSyUUiqbqsvbKaGjBGgxgDfrIGwWUj05QNPl/uAsM+jMNLQvdzh3CryHKRycoHx2rLikR+r0u+r17aAcajk/PGPhnYtC35Hku2q0mJo6Dk8oZSodl1SUl0uChj/v2HXK6jkq1xi79lhj0LfR7Xdw1v+D4tILTSlV1OSJ02i10O22c1d6w17QFBn1DzdsGnLGN6nkd+byhuhxRxmMbrdsG9LyB2nlddTl7hUGPKAwCNG6ukU6ncV5/q7oc0W4bn+H7PuoXl7wkFxGDHoHv+7i5/oRCoYhKtaa6HALQbjUxGg1xcfkO6TRvB1lH5sXcDYRBgJvrTyiaJkMeI5VqDUXTxM31J4RBoLqc2GPQ12jcXKNQKHLSLYZOK1UUCkU0bq5VlxJ7DPoKzdsG0uk0W/IYq1RrSKfTaN42VJcSawz6Ev1eF87Y5sTbHjivv4UzttHvdVWXElsM+gKe5+Ku+QVVXsLZG9XzOu6aX+B5rupSYolBX6DdauL4tMLr5HsknzdwfFpBu9VUXUosMehzhpaFieNw8m0PnVaqmDgOhpalupTYYdDndDt3OKmcqS6DtnRSOUO3c6e6jNhh0GcMLQvh15APqOyx0mEZ4deQrfocBn1Gv3eP8tGJ6jLomcpHJ+j37lWXESsM+hPPczG2R3wyKgHKR8cY2yPOwM9g0J9YDw8wS+yyJ4VZKsN6eFBdRmww6E+G1gBmqaS6DNoRs1TC0BqoLiM2GHQ8PrgyHttc4y1BCkUT47HNB16eMOgAbPtxtVYJUikNqZSMP7tRKMC2bdVlxIKMv/gajmND15N/F5yUgE/pugHHYdABBh0A4E4myOm66jJe1DTkQSDnxRE5XYc7maguIxa4NAcA13WRySZ7dVFJAZ/KZLNwXV5iA9iiAwB830MmnVFdBu1YJp2B73tKjv3H73/ij9//VHLsRRh0PM66c5HB5NFSKc66P2HQ8fg+MKnvQksyTdPEvsxyHr/dRAIon4z7+ef/RNrvp5/+/WI1TM/8bNWT5TX/psvG4/Pb//mvf7xGOd/gNxscyyUV517+whc4APj0v/+iev5GzNJRqZQm4nLb4yucvuDd3/7+6seetuSqWvB5bNEBZLNZeLzemjie6yKb8PsjomLQAWRzOUwcR3UZtGMTx0E2l1NdRiww6Ej+PdHTB1lmH2hZtC1ppDzDEIXyWfc4MAwDjc8j1WW8GAnj8UXs0Qj1i++UHDsuY/OpZJ7KN6SlUsjnDYyGXFAwKUZDC/m8wVn3Jwz6k6JZgjXgiiRJYQ0GKJpcMWiKQX9iHh7CGvRVl0E7Yg36MA8PVZcRGwz6k0wmi7xR4Iv6EqDf6yJvFJDJ8NLaFIM+g+uBJwPX5/8Wgz6jaJrQDjQMHtiF31eDhz60Aw1Fkwt9zmLQ5xyfnuG+zXd37av79h2OT/nuvHkM+pyiaSKn6+i0W6pLoQ112i3kdJ2t+QIM+gKVag3dThvjcXLvlkua8dhGt9NGpVpTXUosMegLZDJZnNXeoHXbUF0KRdS6beCs9oYz7Usw6EuUj46h5w3cNj6rLoXWuG18hp43+ILMFRj0FWrndfi+j3arqboUWqLdasL3fdTO66pLiTUGfY36xSVGoyEn52Ko025hNBqifnGpupTYY9DX0FIpXFy+w9Cy2LLHSLvVxNCycHH5jg+uRMClpCIKgwCNm2uk02mc19+qLke028Zn+L6P+sUlQx4Rg76h5m0DzthG9bwuZo25uHhcA64BPW9wTL4hBn0L/V4Xd80vOD6t4LRSVV2OCJ12C91OG2e1N5xd3wKDviXPc9FuNTFxHJxUzlA6LKsuKZEGD33ct++Q03VUqjVeJ98Sg/5MQ8tCt3OH8GuI8tEJW5sd6fe66PfuoR1oOD49422tz8Sg78jQstDv3WNsj2CWyjBLJRSK/HJuYjS0YA0GsAZ95I0CykcnDPiOMOg75nkurIcHDK0BxmMbRqEAXTeQ03Vksllk0hloqZTY1z+FYYgwCOD5HjzXxcRx4Dg27NEI+byBolmCeXjILvqOMegvKAwC2LYNx7HhTiZwXRe+7yEMArFv+dQ0DVoqhXQ6g2w2i2wuB103YBhcyPElMehEAsjsPxIJw6ATCcCgEwnAoBMJwKATCcCgEwnAoBMJwKATCcCgEwnAoBMJwKATCcCgEwnwf3IJ+HOUfkg3AAAAAElFTkSuQmCC;" parent="1" vertex="1"><mxGeometry x="30" y="680" width="250" height="161" as="geometry"/></mxCell><mxCell id="9" value="" style="shape=image;verticalLabelPosition=bottom;labelBackgroundColor=default;verticalAlign=top;aspect=fixed;imageAspect=0;image=data:image/png,iVBORw0KGgoAAAANSUhEUgAAALEAAABNCAYAAADpeYWnAAATzUlEQVR4nO2daYxlR3XHf6fqLu91v+6exbaAOAkII7M4HsdbDFhstgCTEJRIjiJAiZQPERhvONiOiIwSxBJ2zGITKcqHfEB8ihQlhGAY4xBQsMnYBmO8hGCDGCcEjGfp7vfuUnXyoeq+pfeeaU93m3ukO9X/efee2v517rmn6tYV57zSSiu7WMx2F6CVVk5WWhK3suulJXEru15aErey66UlcSu7XloSt7LrJTkluRTH8Y9/G/fkI2j5FGpqNEvRJAFrAYU20LfzReI/ziF1jZQV4hNMthez/2zMcy+CfObUF+vpihPrkcO4h/4VVxzGz00jzoH34VCPqII25I1/hyIxyegW7xgsErCEv1UExIAJhxqLOTaPzc/Evuj1yJ5f4VTIlpPYP3In9RPfxM11kboejlp8jTgfyOo9E8QdT0ViGk5p8U7BEvpoIpVAYBHUGjA23l0TNEmwR/skz3k55uzXnByp1pEtI7F/5GtUT/wb2utCVSGugqpGvIPaIRotcWOBYSwFJFrlYeO16c5LoxWG5WS2BhUDiQWToGmC2hTSFJnvkz7nlZizX83TISdNYj1ymOrev8PPZFCVSFUiVQWuRmoHkbyiCl5HZIUlI75Nd1fakJhAbiNoJDNi0MSCTdE0RdMM0gxzvCQ9/0+23M04KRK7Q1+gqn8YXIaqRMoC6jq4D+qC+4CCJ5J33PIyuk21eHdjZERuE7BGMpOkaJKiWRbIbBPS5HnYC/7wRGm3TE6YxNXXPoTr1khZBPJWJVJX4Dwy9Hl9qODwoa2pPS1+pmKJUdtoqdVYsBZNgmuhWY7mHeyiJX31zWyFbJ7ExXGKf/8I2k2Qoo+UJVIVwRp7F6wuPtRvZ9z32nS7UgEwYEBNCKdqmqF5juZdpF+TX/qukw7LbY7E8z+nuPtWyA0yGCBlPzy8uTpYW23J26arkFmaKEYS/OS8i3a6SFGTX3wd9E7jRGXjJC6OU3zjQ5AZpL+IlIMYhfCgjjbO2+J1sUgIwxkDaYbmHbQzBaUjv/TmE7bIG552Lr/+YUgjgQd9qIrgAzehMzQSuU3bdJXUe/Bx3qAqkMEi0l+AVAK/TlA2ZImrgx/A5QVmYR4p+uEhzrsQMkPZ7rtVm+6yFAkhOWNHFrk7jVRdssvezWZl3bUT7tAXcHmJ6S8EAtdl8IGbESabzrOVX3ZRBRXEKYpGXgu+a3CHvrDp8NuaJNYjh6kWHwrkbVwIt9R9kDDCmsK1uMUbwdEBEEC1QAREhIrvY44c3tSEyJruRHnHe9CkRPrzSDFA6jJk3sZ9W7xVWJoZviS4FVMzmDojfe172aisaon9w3fiOx6z0A8ErirwLo6qcSenxS0+CawexCM1IAWYBNdLsA/fiXnhxhYOrRqdqH90R5zMKMDFKETzlNke7bGVhyqoA1ch1QAp+tQ/uoONyoqW2D98EM0NsjAIkQhXj1agDUeUjl3R4hafJPaKoGhVIeUAnc7wDx/EvPAy1pMVLXH9+FehHLPCLixk3/Y4Y5s+c1P1gWeuCrwrB4GHG5BllliPHEY7IPNFnJGrQwYoYfA0KS1u8dZiPOJqtDJIWaC9DrqBSMUyS+wf/GcoixiJiARufeH2OBVHY5F9HfhXFYGP68gyS+yOPopoCfWYFW5Cajsgzqgqk+Vp1rea0A5idkgctMUngD2oQZxD6+BWuOq/sKwtkyQujqMdixwvIS5sD0srNWakYxmeeqzq4/S7D4M2rlcWkbi2RDAYpCH2Npe3xSeAvYLxgX+uQmd6UBxfc3HQBIn9Y/cEP7guQ0x4OLERR8xEjqcWqwbylqVj5u0r32KO3fYGsizFJoKI2dbytvhEsQ+88wapKrQq8Y/ds2aUYsIn9j99MLzg6eMLnsQHuh1wqCpVVa9KYIDZq/6FQb/E1S5a6e0vd3ucyOHji8U1UlfoTx9cobdHMmmJ55+IITUXZ+c06Bwqb+TUYlVFvcfVjsff+wqe+56vc9+15wd3SsF75cLP3AfAnmu+xLHPXkEuYK2J7rMfUxdHvIS/w1s0o/x07M7TvK0efaooBhEdnafjFgWa13JEGn0bz1+bttbxthAQHTu3KWOjc0n+K57vY5lkQ+29/ZjAP1dDXeEWnljTL570if1iiEg0VtjHxlYdtdU2YEERAWuFbjflsb+8lH2nTWOMQYFyUHH/dedz3q33AlD0S9LMEOmEcy4OBEAk6DOCMYKxZjR94xUfnO2hbiX64IR3II0l6EFxjW8e20kAMSbsJWIFVFDVtfM3zTtpoE5xqmjMDw0PqgKYRDBxsxJ1HqcedXEN2Fh7iZHYVib8Jop3DgSMGMQYhO3tz3WxByRutONrcItrUHgJiVXcaJ1wE+6IjTlKdVuwoKSJYbqXkmc2bDwjgldlkFmcG1nLunZDItS1Z/rtX1qx8sc+/Tqy3MYOh6p0w3Pnb3s9RoTaeWav/vLwmsW/uQIjBufW1ysia+Z/9FOvJc0sSWJDWSu3us7PvI4stYj11NXqOhtZuP0KrJ0s58LtV5BmdmSRt7E/18VqhovoNXFr1nUyTmwlEHcHxoZFwmYzWWrpdBOy3GLs6HZ89ge/NVEVVcV7T1FUq1Z+9povMxhU1LWnrmsG/XL42/z8gIX5YoLAP3nfK6hKh3OOYrC23n6/oipr+v1i1fPmrr2Dqbd9iaKo19d5ddRZOYpBuep5jQwGFXU1mX9/saSuarz3qPox12kHHo0RVR94uYYsixOLHyPx8JX7+OM2xxHDbTDcjl3tmb4qEGx2rPzfe9eFnHHGTHAlomvww1teysJiSV151CvOKxfd9h0A9lz7FY7eejnGClVZD/XMHx1w1vtHA+Ohmy5iz94uJroNsJJez0W3fReAvdd9hSc/9mrqOtwh7r/ufNR7dMyHPf/T9wMwWCzpTCWo+qBzoaSul5d17/Vf4RefuAzvwnnz8wWDQc3Ft4c873nbuXS6Kb1extzeLt4LVTmyYv3FgiQRvFOsje4MgjB0nndOf6uCOsT74c+rySSJ1Y9265mYam7afWdgVaUoKqZXqFCeWZJU4iJryFJDbyYnzSyudjinFEXNf151LhdGwhVFRZ4nEy7JOIEfeOf5zO3t0p1KSZIQhw56s6jX45xfpreqaqy1/PivXs6ePR0gPLw1ZWjEe4doQpbKWFlX0VnWdDoJM7Md0swwf3xklWdmc3ozOd1uSp5bUA3+epRfveUbE2117NOXk2UJ1jZE3hn9G7BH1KDDhWeryySJXRORWLJnGnGEsAOwMizfD2+5hIWFMt7ilYtu/y4v+MDdPPnRV6HeIybUwZjlHTgudeXIEhsabIkcescB9u3v0utl5JnBGtC4LNUYWVOvd0onN9iZFFfD6Tfdteych268kP2nTdNEG9Yrq3cea4SpqYQ0CXk0MjWVMtPLhn5+VbkV69TI7DVf5cgnX0Onk2CtHUZUdkZ/mxEH3WjAryQTJBbn4yN2VNToZgdhQqgozyxzsx26Uxl15SiLmu/dcAHnfPwQ+991F0c++RoEYe76g/TWbIIQotNVbloXfPY7PPH+S0lTgzUhZFdVnt41X11XryrYxJCo0F+lI9LMYq3gas/c9Xey3kvrPkZCEitoYkmS0WNNYg1Jaob/t9ST/NafnkOahvxEhAO33see6+/k2KcuI88FO/KV2BH9HSshbvWBCMtCbBYQ1AsyXKMwpnzc5G8DDnuzhNCSMSHclmvwj4vMDoMpAP3FCgHmIr736gOjajqlqhwv/dsHJ9prnMd3/dELedXfPwzAc/7iG/ziY6/CigGBwWI1JPC6eptYu8IP3v1bLEYfunaeiz/3AGe9/25+9qFXUlQjkt/7jgPDzvReqcoxnYBocJWG9qb5/+b/xtpv/PfZ2Q7dboKIUIz5/0W/Jk0MBhvvXk9P/20KGwnrZJDIy9VlIjohtodiYs0bB7tx+rcXq5cw7Vx4OlfdQVl4XO1HUUAVzvrg3cO6uFqpqxGr8yxhdqbDnrkuc3Mder18VO+Y33iHz/Ryvv22c4d435/dxaBfUZWeqnIb0osqrlZ61x0EFbqdlNnZLrNzHaansuFpVeUox8uaj+mc7U6WdWn7jJd6pfYb+z3PLJ1ORidPSO2IGMN2VN0x/T16fDaIXfueN+lOzJyJFv8XFeowBh1GyvZiVU9ZemauDwul5955cKIic2N/f/+GC9mzt8P4K7Av+fih1VuhsZhjHT4zE4jznWt/kwOfCrOB+268i5/99avwY57BWnqdg7IIhD/95uX+cCPeNYXYQFkhrgYYa5+ldYm7kA4jaFGe/4G7l549ukZDE0hzzTb3NxIncsQgM2eu2RwTltg++zdAbDh0fDWYjCzVNmBVCYET53n8lpetWaEHrjufXi+nk6dkacKjN13M/Veft+Y1YiyCYMZao9tNmZvtMDfX5YHrzx/+/+l/fhci8MiNF62r1xhQr/z3uy9Z8ff7rz6PR2++mCQxJNbyyE3r6wwr9kL7mObvYX7N3WTl35flf815PHrTxSRJqL+wM/obMZF/BsQGXq7VJhOv7BfHKb/4TuT4EaQoUFcPjTqEKdTQKKceew9FUTO/UHD06ICydHgf49iE89LUMtPLmZnJyLIU5zz9QcXiYkm/X1NVddy0KI56gampjL17unQ6KYOi5vjxAQCzMx2yzOKcMr9QsLAQQlnT0xmdToKrlf6gYjAY6W3CWY3eubkOWWpZ7FfMz5cURR3rBGma0O0mTE0FfYLQ75cs9mv6/ZKq8rF+0UKK0O0m7N83zfR0irUJtavpL9YcPdYPZZ4Nbkp4sBOqumZxoeIXTy2wuFgP29OYyfynpsKAb/Z+2Pb+FsAk+CyH2T1kv/2JjS/FJJ8Bl4JJgDKOzNFtdmKknmIshNm63lROYm2YDBiLH4pAkljyzJJlCcYIiQ0RhTxNmJ5yK1wjpKmh20mx1mAkPqETfN0kMXhVrDV08xRVJUktaWIhh24npaxW19vJU6wVrLVkaRImPuLoSRJDltoYLQi3AGsMeeaYnsrWLquxGIHEWDo5yFx3WGZrDI09Toyl24F9e6eZ6Y30yZL8k2RsymOb+ncZFoPYBHXpuhsNLpuxs2eci/vJN4NLQb3kUxpKmC/bHiwiMTgfYoheR7/HDcpjvFMwAl7DegtjhCy1cXHPqD4Iw0U4giAJWJOhMAw3JSJIZkitQVFM3KLUCPhkqd5QnpFeQTDD6/0YKY0IYgJx41VIIliTkKZ25fqZQEyGnQ1pYmP5w11YkAlfOU0sMiXgR/qQlfNX3d7+HeJmoZNNsGeMHq43TGJz4I24/70HjEWwIM3O73GkiIQZvW3AJlbQ2OYWBGPrJUNTxGlpNJyPCFaUsJZPl5wfez7e4sGgVsZw0G9VR9/bGztfsJAIE7G9of5oXYwgnrHrl/w+UV+DGsEMn642UD/T0ID45YHR+U17pUbALNW3JH/d/v6VMPpDO4gFm2EOvJH1ZPnaiT1nImYW7CIqBonLDYeei+rYyNkGTIPjCFZGlmSV6xliWfX8kYVegpddP/qd4fXj+ib1T+w5tkL++C2sn26+vZblv93960ETAzZBTA/Zs3ZkAlbZdyI553fRJA+LZxsfS0MHEDuixS3echwtcfgeXkZyzpuWUnNFWZHE8qLLENtFbQIa346IT/QMV2m2uMVPA9bgC4vtIi9af/cfWGMvtuTAH0Cao4lFxIIYmvUhEqcDW9ziLcMS4sKaWEg7gX8blFVJLC++DOmeDkkWvhSpEkcKqOrYCGpxi7cAq4SHuSRDuqchL96YFV6TxADJ5TegSQY2JXyfzIA2Iwma+e4Wt/ikMHGPYhs+3JhcfgObkTVJLHvPxJ79uvABPWNpvh7Z+DKoxpHU4hafIEZQMYFfWYo9+/XI3vUjEuOy7teT7CVvQfY9D/I8zuSNZoTCSBr5Ni1u8aYw4e4uxkKWIfuej73kLWxWNvQJsPT33gfdveHbvHGGB8KtAB1bLdXiFm8UNxwyBp9mMLUv8OwEZMPfsUuv/DDS6aFpHmefwiITlvg3LW7xuliE8Llci6Y50pkmvfLEv2O3YRKTz5Be+RHIe+Fj0yaSGJnwd1Ba3OLVcWP4jEHTFPIe6ZUfPanvO2+cxAC9/aRvvRWZOQ3NckiSUCgZt8jx3Ba3eCmOC3tIEjTrIDOnkb71Vujt52RkcySGYJH/+HPwrBegaR6ssoy5Fs3oG47AFv/SYyJ5xYYPlOcdeNYLAo9OwgI3svEPlK8g/j8+j7vvn9CywtR1eE0+bnaxfCFKm/7SpRLiWGrCHnA+SZA8w573O5iXvpmtkpMiMYA+dZj6ix9Bn/ofKEuM86MNL3R8vxsCFmnxMx2PvRIl1uITC2mK7Hs2yRtuRPZu/GuhG5GTJnEj+v2D1N/8PCzOo3U1JLOoog2Zx0jdps+wNJK5IbEYg7cGSVKY7pG87M2bmkrejGwZiRvRBw9Sf/sf0GNPQl3Hb0ErzXfwGjIPC8CYpW7x7sONJRaJe98a1FpIEmR2P8lFv4+85Okh77AMW03iRvSpw/hD/4h/7BC6uBAW1zuHEAgtCsPXUcYttIAqLd6xWEb9Jgwnv8Ra1BpkahrzvAswF7xpy92G1eRpI/GEFMfRH9yD//F38T//EXr8KajLaJ2XnKvDf5oitni7sTApkbwkGTKzF3Par2N+7VzkrIu3JNqwWTk1JG6lladRNh8nbqWVHSYtiVvZ9dKSuJVdLy2JW9n10pK4lV0vLYlb2fXSkriVXS8tiVvZ9dKSuJVdL/8PcpV8MBRLqWEAAAAASUVORK5CYII=;" parent="1" vertex="1"><mxGeometry x="780" y="760" width="177" height="77" as="geometry"/></mxCell><mxCell id="11" value="" style="rounded=0;whiteSpace=wrap;html=1;labelBackgroundColor=none;labelBorderColor=none;fontSize=18;fontColor=none;" parent="1" vertex="1"><mxGeometry x="980" y="168" width="270" height="692" as="geometry"/></mxCell><mxCell id="12" value="&lt;b&gt;&lt;font style=&quot;font-size: 21px;&quot;&gt;Пользователь&lt;/font&gt;&lt;/b&gt;" style="text;html=1;strokeColor=none;fillColor=none;align=center;verticalAlign=middle;whiteSpace=wrap;rounded=0;labelBackgroundColor=none;labelBorderColor=none;fontSize=18;fontColor=none;" parent="1" vertex="1"><mxGeometry x="1030" y="185" width="160" height="30" as="geometry"/></mxCell><mxCell id="13" value="Login:" style="text;html=1;strokeColor=none;fillColor=none;align=center;verticalAlign=middle;whiteSpace=wrap;rounded=0;fontSize=21;" vertex="1" parent="1"><mxGeometry x="1000" y="260" width="70" height="30" as="geometry"/></mxCell><mxCell id="15" value="User2023" style="text;html=1;strokeColor=none;fillColor=none;align=center;verticalAlign=middle;whiteSpace=wrap;rounded=0;fontSize=21;" vertex="1" parent="1"><mxGeometry x="1020" y="310" width="120" height="30" as="geometry"/></mxCell><mxCell id="17" value="" style="rounded=0;whiteSpace=wrap;html=1;fontSize=21;" vertex="1" parent="1"><mxGeometry x="290" y="168" width="682" height="61" as="geometry"/></mxCell><mxCell id="18" value="" style="rounded=0;whiteSpace=wrap;html=1;fontSize=21;" vertex="1" parent="1"><mxGeometry x="620" y="168" width="352" height="61" as="geometry"/></mxCell><mxCell id="19" value="&lt;font style=&quot;font-size: 21px;&quot;&gt;Арендованные сервера&lt;/font&gt;" style="text;html=1;strokeColor=none;fillColor=none;align=left;verticalAlign=middle;whiteSpace=wrap;rounded=0;fontStyle=1;labelBackgroundColor=default;labelBorderColor=none;" vertex="1" parent="1"><mxGeometry x="320" y="169" width="280" height="60" as="geometry"/></mxCell><mxCell id="20" value="&lt;font style=&quot;font-size: 21px;&quot;&gt;Стандартные конфигурации&lt;/font&gt;" style="text;html=1;strokeColor=none;fillColor=none;align=center;verticalAlign=middle;whiteSpace=wrap;rounded=0;fontStyle=1;labelBackgroundColor=default;labelBorderColor=none;" vertex="1" parent="1"><mxGeometry x="620" y="170" width="350" height="60" as="geometry"/></mxCell><mxCell id="22" value="Серверов в аренде:" style="text;html=1;strokeColor=none;fillColor=none;align=center;verticalAlign=middle;whiteSpace=wrap;rounded=0;fontSize=21;" vertex="1" parent="1"><mxGeometry x="1000" y="370" width="210" height="30" as="geometry"/></mxCell><mxCell id="23" value="0 шт." style="text;html=1;strokeColor=none;fillColor=none;align=center;verticalAlign=middle;whiteSpace=wrap;rounded=0;fontSize=21;" vertex="1" parent="1"><mxGeometry x="1030" y="430" width="60" height="30" as="geometry"/></mxCell><mxCell id="24" value="128" style="text;html=1;strokeColor=none;fillColor=none;align=center;verticalAlign=middle;whiteSpace=wrap;rounded=0;fontSize=21;labelBackgroundColor=default;" vertex="1" parent="1"><mxGeometry x="423" y="357" width="60" height="30" as="geometry"/></mxCell><mxCell id="25" value="128" style="text;html=1;strokeColor=none;fillColor=none;align=center;verticalAlign=middle;whiteSpace=wrap;rounded=0;fontSize=21;labelBackgroundColor=default;" vertex="1" parent="1"><mxGeometry x="750" y="357" width="60" height="30" as="geometry"/></mxCell><mxCell id="26" value="&lt;font color=&quot;#adadad&quot; style=&quot;font-size: 15px;&quot;&gt;до 128 Гбайт&lt;/font&gt;" style="text;html=1;strokeColor=none;fillColor=none;align=left;verticalAlign=middle;whiteSpace=wrap;rounded=0;labelBackgroundColor=default;fontSize=21;" vertex="1" parent="1"><mxGeometry x="351" y="285" width="109" height="30" as="geometry"/></mxCell></root></mxGraphModel></diagram></mxfile>